REM DIRINDEX 1\2\4,1\2\5,1\3\6,1\3\7,1\3\8
REM DIRNAME cjc094,folder01,folder02,folder03,folder04,folder05,folder06,folder07
TITLE ""
FILE "LV2_028_WORDS.mp3" MP3
  TRACK 01 AUDIO
    TITLE "0:"
    INDEX 01 00:00:00
  TRACK 02 AUDIO
    TITLE "6:cjc094_1048"
    INDEX 01 00:00:01
  TRACK 03 AUDIO
    TITLE "0:"
    INDEX 01 00:03:35
  TRACK 04 AUDIO
    TITLE "7:cjc094_1049"
    INDEX 01 00:04:17
  TRACK 05 AUDIO
    TITLE "0:"
    INDEX 01 00:05:16
  TRACK 06 AUDIO
    TITLE "8:cjc094_1050"
    INDEX 01 00:05:26
  TRACK 07 AUDIO
    TITLE "0:"
    INDEX 01 00:06:33
  TRACK 08 AUDIO
    TITLE "7:cjc094_1051"
    INDEX 01 00:07:11
  TRACK 09 AUDIO
    TITLE "0:"
    INDEX 01 00:08:15
  TRACK 10 AUDIO
    TITLE "8:cjc094_1052"
    INDEX 01 00:08:28
  TRACK 11 AUDIO
    TITLE "0:"
    INDEX 01 00:10:10
  TRACK 12 AUDIO
    TITLE "7:cjc094_1053"
    INDEX 01 00:10:61
  TRACK 13 AUDIO
    TITLE "0:"
    INDEX 01 00:11:52
  TRACK 14 AUDIO
    TITLE "8:cjc094_1054"
    INDEX 01 00:11:66
  TRACK 15 AUDIO
    TITLE "0:"
    INDEX 01 00:12:63
  TRACK 16 AUDIO
    TITLE "7:cjc094_1055"
    INDEX 01 00:13:39
  TRACK 17 AUDIO
    TITLE "0:"
    INDEX 01 00:14:33
  TRACK 18 AUDIO
    TITLE "8:cjc094_1056"
    INDEX 01 00:14:49
  TRACK 19 AUDIO
    TITLE "0:"
    INDEX 01 00:16:44
  TRACK 20 AUDIO
    TITLE "7:cjc094_1057"
    INDEX 01 00:17:16
  TRACK 21 AUDIO
    TITLE "0:"
    INDEX 01 00:18:21
  TRACK 22 AUDIO
    TITLE "8:cjc094_1058"
    INDEX 01 00:18:35
  TRACK 23 AUDIO
    TITLE "0:"
    INDEX 01 00:19:30
  TRACK 24 AUDIO
    TITLE "7:cjc094_1059"
    INDEX 01 00:20:04
  TRACK 25 AUDIO
    TITLE "0:"
    INDEX 01 00:21:13
  TRACK 26 AUDIO
    TITLE "8:cjc094_1060"
    INDEX 01 00:21:29
  TRACK 27 AUDIO
    TITLE "0:"
    INDEX 01 00:22:52
  TRACK 28 AUDIO
    TITLE "7:cjc094_1061"
    INDEX 01 00:23:26
  TRACK 29 AUDIO
    TITLE "0:"
    INDEX 01 00:24:25
  TRACK 30 AUDIO
    TITLE "8:cjc094_1062"
    INDEX 01 00:24:41
  TRACK 31 AUDIO
    TITLE "0:"
    INDEX 01 00:27:65
  TRACK 32 AUDIO
    TITLE "7:cjc094_1063"
    INDEX 01 00:28:35
  TRACK 33 AUDIO
    TITLE "0:"
    INDEX 01 00:29:34
  TRACK 34 AUDIO
    TITLE "8:cjc094_1064"
    INDEX 01 00:29:48
  TRACK 35 AUDIO
    TITLE "0:"
    INDEX 01 00:32:15
  TRACK 36 AUDIO
    TITLE "7:cjc094_1065"
    INDEX 01 00:32:64
  TRACK 37 AUDIO
    TITLE "0:"
    INDEX 01 00:33:66
  TRACK 38 AUDIO
    TITLE "8:cjc094_1066"
    INDEX 01 00:34:10
  TRACK 39 AUDIO
    TITLE "0:"
    INDEX 01 00:37:71
  TRACK 40 AUDIO
    TITLE "7:cjc094_1067"
    INDEX 01 00:38:47
  TRACK 41 AUDIO
    TITLE "0:"
    INDEX 01 00:39:70
  TRACK 42 AUDIO
    TITLE "8:cjc094_1068"
    INDEX 01 00:40:13
  TRACK 43 AUDIO
    TITLE "0:"
    INDEX 01 00:42:29
  TRACK 44 AUDIO
    TITLE "7:cjc094_1069"
    INDEX 01 00:43:03
  TRACK 45 AUDIO
    TITLE "0:"
    INDEX 01 00:44:18
  TRACK 46 AUDIO
    TITLE "8:cjc094_1070"
    INDEX 01 00:44:34
  TRACK 47 AUDIO
    TITLE "0:"
    INDEX 01 00:46:60
  TRACK 48 AUDIO
    TITLE "7:cjc094_1071"
    INDEX 01 00:47:30
  TRACK 49 AUDIO
    TITLE "0:"
    INDEX 01 00:48:44
  TRACK 50 AUDIO
    TITLE "8:cjc094_1072"
    INDEX 01 00:48:61
  TRACK 51 AUDIO
    TITLE "0:"
    INDEX 01 00:51:09
  TRACK 52 AUDIO
    TITLE "7:cjc094_1073"
    INDEX 01 00:51:56
  TRACK 53 AUDIO
    TITLE "0:"
    INDEX 01 00:52:61
  TRACK 54 AUDIO
    TITLE "8:cjc094_1074"
    INDEX 01 00:53:00
  TRACK 55 AUDIO
    TITLE "0:"
    INDEX 01 00:53:60
  TRACK 56 AUDIO
    TITLE "7:cjc094_1075"
    INDEX 01 00:54:32
  TRACK 57 AUDIO
    TITLE "0:"
    INDEX 01 00:55:36
  TRACK 58 AUDIO
    TITLE "8:cjc094_1076"
    INDEX 01 00:55:53
  TRACK 59 AUDIO
    TITLE "0:"
    INDEX 01 00:56:63
  TRACK 60 AUDIO
    TITLE "7:cjc094_1077"
    INDEX 01 00:57:50
  TRACK 61 AUDIO
    TITLE "0:"
    INDEX 01 00:58:58
  TRACK 62 AUDIO
    TITLE "8:cjc094_1078"
    INDEX 01 00:59:00
  TRACK 63 AUDIO
    TITLE "0:"
    INDEX 01 00:59:61
  TRACK 64 AUDIO
    TITLE "7:cjc094_1079"
    INDEX 01 01:00:31
  TRACK 65 AUDIO
    TITLE "0:"
    INDEX 01 01:01:33
  TRACK 66 AUDIO
    TITLE "8:cjc094_1080"
    INDEX 01 01:01:50
  TRACK 67 AUDIO
    TITLE "0:"
    INDEX 01 01:03:53
  TRACK 68 AUDIO
    TITLE "7:cjc094_1081"
    INDEX 01 01:04:29
  TRACK 69 AUDIO
    TITLE "0:"
    INDEX 01 01:05:32
  TRACK 70 AUDIO
    TITLE "8:cjc094_1082"
    INDEX 01 01:05:50
  TRACK 71 AUDIO
    TITLE "0:"
    INDEX 01 01:10:20
